<?xml version="1.0" encoding="UTF-8" standalone="no"?>
<!-- Created with Inkscape (http://www.inkscape.org/) -->

<svg
   version="1.1"
   id="svg41"
   xml:space="preserve"
   width="19.205334"
   height="19.206667"
   viewBox="0 0 19.205333 19.206667"
   sodipodi:docname="c.svg"
   inkscape:version="1.1.1 (c3084ef, 2021-09-22)"
   xmlns:inkscape="http://www.inkscape.org/namespaces/inkscape"
   xmlns:sodipodi="http://sodipodi.sourceforge.net/DTD/sodipodi-0.dtd"
   xmlns="http://www.w3.org/2000/svg"
   xmlns:svg="http://www.w3.org/2000/svg"><defs
     id="defs45"><clipPath
       clipPathUnits="userSpaceOnUse"
       id="clipPath57"><path
         d="M 0,1741.932 H 1440.77 V 0 H 0 Z"
         id="path55" /></clipPath><clipPath
       clipPathUnits="userSpaceOnUse"
       id="clipPath99"><path
         d="M 0,1741.932 H 1440.77 V 0 H 0 Z"
         id="path97" /></clipPath><clipPath
       clipPathUnits="userSpaceOnUse"
       id="clipPath249"><path
         d="M 0,1741.932 H 1440.77 V 0 H 0 Z"
         id="path247" /></clipPath><clipPath
       clipPathUnits="userSpaceOnUse"
       id="clipPath1133"><path
         d="M 0,1741.932 H 1440.77 V 0 H 0 Z"
         id="path1131" /></clipPath><clipPath
       clipPathUnits="userSpaceOnUse"
       id="clipPath1313"><path
         d="M 0,1741.932 H 1440.77 V 0 H 0 Z"
         id="path1311" /></clipPath><clipPath
       clipPathUnits="userSpaceOnUse"
       id="clipPath1501"><path
         d="M 0,1741.932 H 1440.77 V 0 H 0 Z"
         id="path1499" /></clipPath><clipPath
       clipPathUnits="userSpaceOnUse"
       id="clipPath1617"><path
         d="M 0,1741.932 H 1440.77 V 0 H 0 Z"
         id="path1615" /></clipPath><clipPath
       clipPathUnits="userSpaceOnUse"
       id="clipPath1625"><path
         d="m 1407.3,726.2 h 18.99 v -7.189 h -18.99 z"
         id="path1623" /></clipPath><clipPath
       clipPathUnits="userSpaceOnUse"
       id="clipPath1705"><path
         d="M 0,1741.932 H 1440.77 V 0 H 0 Z"
         id="path1703" /></clipPath><clipPath
       clipPathUnits="userSpaceOnUse"
       id="clipPath1733"><path
         d="M 0,1741.932 H 1440.77 V 0 H 0 Z"
         id="path1731" /></clipPath><clipPath
       clipPathUnits="userSpaceOnUse"
       id="clipPath1757"><path
         d="M 0,1741.932 H 1440.77 V 0 H 0 Z"
         id="path1755" /></clipPath><clipPath
       clipPathUnits="userSpaceOnUse"
       id="clipPath1931"><path
         d="M 0,1741.932 H 1440.77 V 0 H 0 Z"
         id="path1929" /></clipPath><clipPath
       clipPathUnits="userSpaceOnUse"
       id="clipPath2015"><path
         d="M 0,1741.932 H 1440.77 V 0 H 0 Z"
         id="path2013" /></clipPath><clipPath
       clipPathUnits="userSpaceOnUse"
       id="clipPath2279"><path
         d="M 0,1741.932 H 1440.77 V 0 H 0 Z"
         id="path2277" /></clipPath><clipPath
       clipPathUnits="userSpaceOnUse"
       id="clipPath2675"><path
         d="M 0,1741.932 H 1440.77 V 0 H 0 Z"
         id="path2673" /></clipPath><linearGradient
       x1="0"
       y1="0"
       x2="1"
       y2="0"
       gradientUnits="userSpaceOnUse"
       gradientTransform="matrix(18.824343,0,0,-18.824343,677.85059,511.0972)"
       spreadMethod="pad"
       id="linearGradient2745"><stop
         style="stop-opacity:1;stop-color:#ffffff"
         offset="0"
         id="stop2741" /><stop
         style="stop-opacity:1;stop-color:#231f20"
         offset="1"
         id="stop2743" /></linearGradient><clipPath
       clipPathUnits="userSpaceOnUse"
       id="clipPath2903"><path
         d="M 0,1741.932 H 1440.77 V 0 H 0 Z"
         id="path2901" /></clipPath><clipPath
       clipPathUnits="userSpaceOnUse"
       id="clipPath3535"><path
         d="M 0,1741.932 H 1440.77 V 0 H 0 Z"
         id="path3533" /></clipPath><clipPath
       clipPathUnits="userSpaceOnUse"
       id="clipPath14957"><path
         d="M 0,1741.932 H 1440.77 V 0 H 0 Z"
         id="path14955" /></clipPath><clipPath
       clipPathUnits="userSpaceOnUse"
       id="clipPath15149"><path
         d="M 0,1741.932 H 1440.77 V 0 H 0 Z"
         id="path15147" /></clipPath><clipPath
       clipPathUnits="userSpaceOnUse"
       id="clipPath15617"><path
         d="M 0,1741.932 H 1440.77 V 0 H 0 Z"
         id="path15615" /></clipPath><clipPath
       clipPathUnits="userSpaceOnUse"
       id="clipPath16437"><path
         d="M 0,1741.932 H 1440.77 V 0 H 0 Z"
         id="path16435" /></clipPath><clipPath
       clipPathUnits="userSpaceOnUse"
       id="clipPath16463"><path
         d="M 0,1741.932 H 1440.77 V 0 H 0 Z"
         id="path16461" /></clipPath><clipPath
       clipPathUnits="userSpaceOnUse"
       id="clipPath16977"><path
         d="M 0,1741.932 H 1440.77 V 0 H 0 Z"
         id="path16975" /></clipPath><clipPath
       clipPathUnits="userSpaceOnUse"
       id="clipPath17373"><path
         d="M 0,1741.932 H 1440.77 V 0 H 0 Z"
         id="path17371" /></clipPath><clipPath
       clipPathUnits="userSpaceOnUse"
       id="clipPath18149"><path
         d="M 0,1741.932 H 1440.77 V 0 H 0 Z"
         id="path18147" /></clipPath><clipPath
       clipPathUnits="userSpaceOnUse"
       id="clipPath18179"><path
         d="M 0,1741.932 H 1440.77 V 0 H 0 Z"
         id="path18177" /></clipPath><clipPath
       clipPathUnits="userSpaceOnUse"
       id="clipPath19075"><path
         d="M 0,1741.932 H 1440.77 V 0 H 0 Z"
         id="path19073" /></clipPath><clipPath
       clipPathUnits="userSpaceOnUse"
       id="clipPath19123"><path
         d="M 0,1741.932 H 1440.77 V 0 H 0 Z"
         id="path19121" /></clipPath><clipPath
       clipPathUnits="userSpaceOnUse"
       id="clipPath19191"><path
         d="M 0,1741.932 H 1440.77 V 0 H 0 Z"
         id="path19189" /></clipPath><clipPath
       clipPathUnits="userSpaceOnUse"
       id="clipPath19809"><path
         d="M 0,1741.932 H 1440.77 V 0 H 0 Z"
         id="path19807" /></clipPath><clipPath
       clipPathUnits="userSpaceOnUse"
       id="clipPath19881"><path
         d="M 0,1741.932 H 1440.77 V 0 H 0 Z"
         id="path19879" /></clipPath><clipPath
       clipPathUnits="userSpaceOnUse"
       id="clipPath20181"><path
         d="M 0,1741.932 H 1440.77 V 0 H 0 Z"
         id="path20179" /></clipPath><clipPath
       clipPathUnits="userSpaceOnUse"
       id="clipPath20351"><path
         d="M 0,1741.932 H 1440.77 V 0 H 0 Z"
         id="path20349" /></clipPath><clipPath
       clipPathUnits="userSpaceOnUse"
       id="clipPath20461"><path
         d="M 0,1741.932 H 1440.77 V 0 H 0 Z"
         id="path20459" /></clipPath><clipPath
       clipPathUnits="userSpaceOnUse"
       id="clipPath20499"><path
         d="M 0,1741.932 H 1440.77 V 0 H 0 Z"
         id="path20497" /></clipPath><clipPath
       clipPathUnits="userSpaceOnUse"
       id="clipPath21735"><path
         d="M 0,1741.932 H 1440.77 V 0 H 0 Z"
         id="path21733" /></clipPath><clipPath
       clipPathUnits="userSpaceOnUse"
       id="clipPath21923"><path
         d="M 0,1741.932 H 1440.77 V 0 H 0 Z"
         id="path21921" /></clipPath><clipPath
       clipPathUnits="userSpaceOnUse"
       id="clipPath22081"><path
         d="M 0,1741.932 H 1440.77 V 0 H 0 Z"
         id="path22079" /></clipPath><clipPath
       clipPathUnits="userSpaceOnUse"
       id="clipPath22205"><path
         d="M 0,1741.932 H 1440.77 V 0 H 0 Z"
         id="path22203" /></clipPath><clipPath
       clipPathUnits="userSpaceOnUse"
       id="clipPath22241"><path
         d="M 0,1741.932 H 1440.77 V 0 H 0 Z"
         id="path22239" /></clipPath><clipPath
       clipPathUnits="userSpaceOnUse"
       id="clipPath22293"><path
         d="M 0,1741.932 H 1440.77 V 0 H 0 Z"
         id="path22291" /></clipPath><clipPath
       clipPathUnits="userSpaceOnUse"
       id="clipPath22309"><path
         d="M 0,1741.932 H 1440.77 V 0 H 0 Z"
         id="path22307" /></clipPath><clipPath
       clipPathUnits="userSpaceOnUse"
       id="clipPath22325"><path
         d="M 0,1741.932 H 1440.77 V 0 H 0 Z"
         id="path22323" /></clipPath><clipPath
       clipPathUnits="userSpaceOnUse"
       id="clipPath22349"><path
         d="M 0,1741.932 H 1440.77 V 0 H 0 Z"
         id="path22347" /></clipPath><clipPath
       clipPathUnits="userSpaceOnUse"
       id="clipPath22365"><path
         d="M 0,1741.932 H 1440.77 V 0 H 0 Z"
         id="path22363" /></clipPath><clipPath
       clipPathUnits="userSpaceOnUse"
       id="clipPath22437"><path
         d="M 0,1741.932 H 1440.77 V 0 H 0 Z"
         id="path22435" /></clipPath><clipPath
       clipPathUnits="userSpaceOnUse"
       id="clipPath23379"><path
         d="M 0,1741.932 H 1440.77 V 0 H 0 Z"
         id="path23377" /></clipPath><clipPath
       clipPathUnits="userSpaceOnUse"
       id="clipPath23757"><path
         d="M 0,1741.932 H 1440.77 V 0 H 0 Z"
         id="path23755" /></clipPath><clipPath
       clipPathUnits="userSpaceOnUse"
       id="clipPath24561"><path
         d="M 0,1741.932 H 1440.77 V 0 H 0 Z"
         id="path24559" /></clipPath><clipPath
       clipPathUnits="userSpaceOnUse"
       id="clipPath25097"><path
         d="M 0,1741.932 H 1440.77 V 0 H 0 Z"
         id="path25095" /></clipPath><clipPath
       clipPathUnits="userSpaceOnUse"
       id="clipPath25175"><path
         d="M 0,1741.932 H 1440.77 V 0 H 0 Z"
         id="path25173" /></clipPath><clipPath
       clipPathUnits="userSpaceOnUse"
       id="clipPath26245"><path
         d="M 0,1741.932 H 1440.77 V 0 H 0 Z"
         id="path26243" /></clipPath><clipPath
       clipPathUnits="userSpaceOnUse"
       id="clipPath26425"><path
         d="M 0,1741.932 H 1440.77 V 0 H 0 Z"
         id="path26423" /></clipPath><clipPath
       clipPathUnits="userSpaceOnUse"
       id="clipPath26473"><path
         d="M 0,1741.932 H 1440.77 V 0 H 0 Z"
         id="path26471" /></clipPath><clipPath
       clipPathUnits="userSpaceOnUse"
       id="clipPath26493"><path
         d="M 0,1741.932 H 1440.77 V 0 H 0 Z"
         id="path26491" /></clipPath><clipPath
       clipPathUnits="userSpaceOnUse"
       id="clipPath26509"><path
         d="M 0,1741.932 H 1440.77 V 0 H 0 Z"
         id="path26507" /></clipPath><clipPath
       clipPathUnits="userSpaceOnUse"
       id="clipPath26559"><path
         d="M 0,1741.932 H 1440.77 V 0 H 0 Z"
         id="path26557" /></clipPath><clipPath
       clipPathUnits="userSpaceOnUse"
       id="clipPath26587"><path
         d="M 0,1741.932 H 1440.77 V 0 H 0 Z"
         id="path26585" /></clipPath><clipPath
       clipPathUnits="userSpaceOnUse"
       id="clipPath26625"><path
         d="M 0,1741.932 H 1440.77 V 0 H 0 Z"
         id="path26623" /></clipPath><clipPath
       clipPathUnits="userSpaceOnUse"
       id="clipPath26733"><path
         d="M 0,1741.932 H 1440.77 V 0 H 0 Z"
         id="path26731" /></clipPath><clipPath
       clipPathUnits="userSpaceOnUse"
       id="clipPath26751"><path
         d="M 0,1741.932 H 1440.77 V 0 H 0 Z"
         id="path26749" /></clipPath><clipPath
       clipPathUnits="userSpaceOnUse"
       id="clipPath26817"><path
         d="M 0,1741.932 H 1440.77 V 0 H 0 Z"
         id="path26815" /></clipPath><clipPath
       clipPathUnits="userSpaceOnUse"
       id="clipPath26857"><path
         d="M 0,1741.932 H 1440.77 V 0 H 0 Z"
         id="path26855" /></clipPath><clipPath
       clipPathUnits="userSpaceOnUse"
       id="clipPath26931"><path
         d="M 0,1741.932 H 1440.77 V 0 H 0 Z"
         id="path26929" /></clipPath><clipPath
       clipPathUnits="userSpaceOnUse"
       id="clipPath27009"><path
         d="M 0,1741.932 H 1440.77 V 0 H 0 Z"
         id="path27007" /></clipPath><clipPath
       clipPathUnits="userSpaceOnUse"
       id="clipPath27091"><path
         d="M 0,1741.932 H 1440.77 V 0 H 0 Z"
         id="path27089" /></clipPath><clipPath
       clipPathUnits="userSpaceOnUse"
       id="clipPath27125"><path
         d="M 0,1741.932 H 1440.77 V 0 H 0 Z"
         id="path27123" /></clipPath><clipPath
       clipPathUnits="userSpaceOnUse"
       id="clipPath27165"><path
         d="M 0,1741.932 H 1440.77 V 0 H 0 Z"
         id="path27163" /></clipPath><clipPath
       clipPathUnits="userSpaceOnUse"
       id="clipPath27185"><path
         d="M 0,1741.932 H 1440.77 V 0 H 0 Z"
         id="path27183" /></clipPath><clipPath
       clipPathUnits="userSpaceOnUse"
       id="clipPath27219"><path
         d="M 0,1741.932 H 1440.77 V 0 H 0 Z"
         id="path27217" /></clipPath><clipPath
       clipPathUnits="userSpaceOnUse"
       id="clipPath27275"><path
         d="M 0,1741.932 H 1440.77 V 0 H 0 Z"
         id="path27273" /></clipPath><clipPath
       clipPathUnits="userSpaceOnUse"
       id="clipPath27303"><path
         d="M 0,1741.932 H 1440.77 V 0 H 0 Z"
         id="path27301" /></clipPath></defs><sodipodi:namedview
     id="namedview43"
     pagecolor="#ffffff"
     bordercolor="#666666"
     borderopacity="1.0"
     inkscape:pageshadow="2"
     inkscape:pageopacity="0.0"
     inkscape:pagecheckerboard="0"
     showgrid="false"
     inkscape:zoom="0.66229946"
     inkscape:cx="-90.593461"
     inkscape:cy="55.111022"
     inkscape:window-width="1312"
     inkscape:window-height="969"
     inkscape:window-x="0"
     inkscape:window-y="25"
     inkscape:window-maximized="0"
     inkscape:current-layer="g26853" /><g
     id="g47"
     inkscape:groupmode="layer"
     inkscape:label="Subway Map"
     transform="matrix(1.3333333,0,0,-1.3333333,-1308.5182,1586.7511)"><g
       id="g26851"
       transform="translate(-55.581261,-141.47957)"><g
         id="g26853"
         clip-path="url(#clipPath26857)"><g
           id="g26867"
           transform="translate(1044.1719,1317.1379)"><path
             d="m 0,0 c -3.976,0 -7.202,3.227 -7.202,7.201 0,3.978 3.226,7.204 7.202,7.204 3.976,0 7.202,-3.226 7.202,-7.204 C 7.202,3.227 3.976,0 0,0"
             style="fill:#1a68bb;fill-opacity:1;fill-rule:nonzero;stroke:none"
             id="path26869" /></g><g
           id="g26871"
           transform="translate(1040.7871,1324.3969)"><path
             d="m 0,0 c 0,2.061 1.312,3.848 3.5,3.848 1.47,0 2.593,-0.765 2.981,-2.392 L 5.026,1.096 C 4.897,1.945 4.278,2.45 3.5,2.45 2.132,2.45 1.556,1.24 1.556,0 c 0,-1.238 0.576,-2.447 1.944,-2.447 0.894,0 1.397,0.56 1.7,1.481 L 6.569,-1.599 C 5.935,-3.141 4.956,-3.846 3.5,-3.846 1.151,-3.846 0,-2.046 0,0"
             style="fill:#ffffff;fill-opacity:1;fill-rule:nonzero;stroke:none"
             id="path26873" /></g></g></g></g></svg>
